Coordinates
version=1
nRows=9
nColumns=26
inDegrees=yes

Units are S.I. units (second, meters, Newtons, ...)
Angles are in degrees.

endheader
time	pelvis_tilt	pelvis_list	pelvis_rotation	pelvis_tx	pelvis_ty	pelvis_tz	hip_flexion_r	hip_adduction_r	hip_rotation_r	knee_angle_r	knee_angle_r_beta	ankle_angle_r	subtalar_angle_r	mtp_angle_r	hip_flexion_l	hip_adduction_l	hip_rotation_l	knee_angle_l	knee_angle_l_beta	ankle_angle_l	subtalar_angle_l	mtp_angle_l	lumbar_extension	lumbar_bending	lumbar_rotation
     54.38423775	    -14.79916466	     -0.84135107	     -5.22171784	      0.34451261	      0.97915120	      0.20694332	     41.09981267	      7.54627591	      0.67088580	     38.66238224	     38.66238224	      5.90627643	    -13.90514106	      0.00000000	      9.45967893	      1.27594075	     -0.85909519	     72.22670200	     72.22670200	    -12.31919554	    -19.80852393	      0.00000000	      0.91402197	      4.52902435	     -5.93727066
     54.39423775	    -14.53422778	     -1.12237276	     -4.80055503	      0.34181791	      0.97217032	      0.20671134	     41.28477497	      7.81257598	      1.13148623	     42.63080822	     42.63080822	      8.09630255	    -15.27428463	      0.00000000	     11.94360789	      0.50000728	     -0.48935604	     76.58991014	     76.58991014	    -11.61351304	    -21.22524705	      0.00000000	      0.25217071	      4.78010033	     -5.37552712
     54.40423775	    -14.37723544	     -1.41518314	     -4.18499936	      0.33915673	      0.96594160	      0.20644859	     40.90017197	      7.91410569	      1.10496423	     45.43583498	     45.43583498	     10.60662514	    -15.90000472	      0.00000000	     14.64750268	     -0.20871981	      0.21460438	     80.55988699	     80.55988699	    -10.77789148	    -22.32342740	      0.00000000	     -0.22316872	      5.00470269	     -4.82324216
     54.41423775	    -14.67851508	     -1.74559131	     -3.43306862	      0.33608702	      0.95997736	      0.20608834	     40.52017291	      7.95222267	      0.67839103	     47.40048581	     47.40048581	     13.22744557	    -16.17449444	      0.00000000	     18.01055096	     -0.83466537	      1.23665230	     84.20426559	     84.20426559	    -10.10175198	    -22.98124230	      0.00000000	     -0.13027120	      5.28075745	     -4.35539880
     54.42423775	    -15.28692957	     -2.13090383	     -2.70189057	      0.33296268	      0.95457720	      0.20560668	     40.18659897	      7.98814727	      0.09094770	     48.89619232	     48.89619232	     15.69376653	    -16.19644186	      0.00000000	     21.80164525	     -1.47093750	      2.31563467	     87.41782466	     87.41782466	     -9.43654008	    -23.11035920	      0.00000000	      0.33894348	      5.65078779	     -3.94702749
     54.43423775	    -15.89063238	     -2.46593201	     -2.03774348	      0.33017600	      0.95023628	      0.20505594	     39.65171878	      8.00948056	     -0.36991424	     50.02283227	     50.02283227	     17.70596040	    -16.20253583	      0.00000000	     25.55532513	     -1.96437168	      3.35578791	     90.00363033	     90.00363033	     -8.71348253	    -22.85767454	      0.00000000	      0.86562119	      5.95747064	     -3.47401698
     54.44423775	    -16.49085876	     -2.50466796	     -1.43884701	      0.32760224	      0.94706946	      0.20431052	     38.91542261	      7.77458216	     -0.59401008	     50.80718067	     50.80718067	     19.44447789	    -16.11947634	      0.00000000	     29.20995110	     -1.97626763	      4.30087388	     91.89635063	     91.89635063	     -7.86401290	    -22.11616264	      0.00000000	      1.45614476	      5.91831341	     -2.86356578
     54.45423775	    -16.43102738	     -2.27964325	     -1.06341906	      0.32589452	      0.94648351	      0.20391235	     37.03711112	      7.50920039	     -0.33881339	     50.88024512	     50.88024512	     20.55233981	    -16.45642006	      0.00000000	     31.87022178	     -1.69549885	      4.85046150	     92.84258965	     92.84258965	     -7.57533434	    -21.87069565	      0.00000000	      1.31331195	      5.51501269	     -1.94347838
     54.46423775	    -17.27946472	     -2.07235366	     -0.82005343	      0.32425855	      0.94589049	      0.20397639	     35.87960140	      7.24786611	     -0.14692604	     50.50102776	     50.50102776	     22.16270905	    -15.48052555	      0.00000000	     35.45175784	     -1.55499581	      5.35649364	     93.35546449	     93.35546449	     -5.85273237	    -19.52780832	      0.00000000	      2.35114139	      5.07631243	     -0.54008025
